<svg width="120" height="40" viewBox="0 0 120 40" fill="none" xmlns="http://www.w3.org/2000/svg">
  <!-- Background gradient -->
  <defs>
    <linearGradient id="grad1" x1="0%" y1="0%" x2="100%" y2="0%">
      <stop offset="0%" style="stop-color:#3B82F6;stop-opacity:1" />
      <stop offset="100%" style="stop-color:#1D4ED8;stop-opacity:1" />
    </linearGradient>
    <linearGradient id="grad2" x1="0%" y1="0%" x2="100%" y2="0%">
      <stop offset="0%" style="stop-color:#10B981;stop-opacity:1" />
      <stop offset="100%" style="stop-color:#059669;stop-opacity:1" />
    </linearGradient>
  </defs>
  
  <!-- SIM Card shape -->
  <rect x="5" y="8" width="18" height="24" rx="2" fill="url(#grad1)" stroke="#1E40AF" stroke-width="1"/>
  
  <!-- SIM card cutout -->
  <rect x="8" y="11" width="12" height="8" rx="1" fill="white"/>
  <rect x="10" y="13" width="8" height="4" rx="0.5" fill="#EF4444"/>
  
  <!-- Globe/World icon -->
  <circle cx="35" cy="20" r="10" fill="url(#grad2)" stroke="#047857" stroke-width="1"/>
  
  <!-- World continents (simplified) -->
  <path d="M28 18 C30 16, 32 16, 34 18 C36 16, 38 16, 40 18 M30 22 C32 20, 34 20, 36 22 M32 25 C34 24, 36 24, 38 25" 
        stroke="white" stroke-width="1.5" fill="none" stroke-linecap="round"/>
  
  <!-- Signal waves -->
  <path d="M47 15 Q49 17, 47 19 M49 13 Q52 17, 52 20 Q52 23, 49 27 M51 11 Q55 15, 55 20 Q55 25, 51 29" 
        stroke="#3B82F6" stroke-width="2" fill="none" stroke-linecap="round"/>
  
  <!-- Text: eSIM -->
  <text x="62" y="16" font-family="Arial, sans-serif" font-size="12" font-weight="bold" fill="#1F2937">eSIM</text>
  
  <!-- Text: Country -->
  <text x="62" y="28" font-family="Arial, sans-serif" font-size="10" font-weight="600" fill="#6B7280">Country</text>
</svg> 